# xmcd
#
# Track frame offsets:
#	150
#	21961
#	42149
#	55373
#	68501
#	89610
#	100165
#	110897
#	123366
#	134692
#	143183
#	153744
#	168203
#	185687
#	199865
#	215814
#	223326
#	240949
#	241535
#	242167
#	242944
#	243806
#	244517
#
# Disc length: 3266 seconds
#
# Revision: 0
# Processed by: cddbd v1.5.2PL0 Copyright (c) Steve Scherf et al.
# Submitted via: EasyCDDAExtractor 10.0.6.1
#
DISCID=540cc017
DTITLE=Various Artist - BMT Radio Singles Gospel One
DYEAR=1900
DGENRE=Gospel
TTITLE0=Kevin Spencer Family - Barabbas
TTITLE1=Jerry and Tammy Sullivan - At The Feet Of God
TTITLE2=Brian and Angela Monehan - How About Your Heart
TTITLE3=Revival - Looking Toward Calvary
TTITLE4=Upper Room Experience - Little Bit Of Heaven
TTITLE5=Goodnewsmen - When God Dips His Pen
TTITLE6=Terry Joe Terrell - Just Having Church
TTITLE7=North Family - I'm Gonna Be There
TTITLE8=The Shulers - I Couldn't Say No
TTITLE9=Lumber River - Heaven Is Better Than This
TTITLE10=New Life Soul Seekers - The Devil's Train
TTITLE11=Jack Hollingsworth - Someday Soon
TTITLE12=Midwest Messengers - I Will Rise
TTITLE13=Gospel Express - You Can Still Find Forgiveness
TTITLE14=Boyd Family - God's Chosen
TTITLE15=Harbor Lighthouse - Hymn
TTITLE16=Judy Pearson - Brian Monehan
TTITLE17=Liner - Angela Monehan
TTITLE18=Liner - Revival
TTITLE19=Liner - Revival
TTITLE20=Liner - Revival
TTITLE21=Liner - Revival
TTITLE22=Liner - revival
EXTD=
EXTT0=
EXTT1=
EXTT2=
EXTT3=
EXTT4=
EXTT5=
EXTT6=
EXTT7=
EXTT8=
EXTT9=
EXTT10=
EXTT11=
EXTT12=
EXTT13=
EXTT14=
EXTT15=
EXTT16=
EXTT17=
EXTT18=
EXTT19=
EXTT20=
EXTT21=
EXTT22=
PLAYORDER=
